<svg width="16" height="16" viewBox="0 0 16 16" fill="none" xmlns="http://www.w3.org/2000/svg">
<path d="M10.6667 6.66669L12.0997 7.09655C13.0151 7.37122 13.4729 7.50855 13.7365 7.86282C14.0001 8.21709 14.0001 8.69502 14.0001 9.65075V14.6667" stroke="#1A1A1A" stroke-linejoin="round"/>
<path d="M5.33325 6H7.33325M5.33325 8.66667H7.33325" stroke="#1A1A1A" stroke-linecap="round" stroke-linejoin="round"/>
<path d="M8.00008 14.6666V12.6666C8.00008 12.0381 8.00008 11.7238 7.80481 11.5286C7.60955 11.3333 7.29528 11.3333 6.66675 11.3333H6.00008C5.37154 11.3333 5.05727 11.3333 4.86201 11.5286C4.66675 11.7238 4.66675 12.0381 4.66675 12.6666V14.6666" stroke="#1A1A1A" stroke-linejoin="round"/>
<path d="M1.33325 14.6667H14.6666" stroke="#1A1A1A" stroke-linecap="round"/>
<path d="M2 14.6666V4.47814C2 2.80431 2 1.96739 2.52745 1.55214C3.05491 1.13689 3.83161 1.36235 5.38501 1.81325L8.71833 2.78079C9.65573 3.05289 10.1245 3.18894 10.3955 3.55975C10.6667 3.93056 10.6667 4.43561 10.6667 5.44569V14.6666" stroke="#1A1A1A" stroke-linecap="round" stroke-linejoin="round"/>
</svg>
