<svg width="21" height="20" viewBox="0 0 21 20" fill="none" xmlns="http://www.w3.org/2000/svg">
<path d="M12.1667 1.66675H8.83341C6.10072 1.66675 4.73438 1.66675 3.76584 2.34493C3.40751 2.59583 3.09583 2.90751 2.84493 3.26584C2.16675 4.23438 2.16675 5.60072 2.16675 8.33341C2.16675 11.0661 2.16675 12.4324 2.84493 13.401C3.09583 13.7593 3.40751 14.071 3.76584 14.3219C4.73438 15.0001 6.10072 15.0001 8.83341 15.0001H12.1667C14.8994 15.0001 16.2657 15.0001 17.2343 14.3219C17.5927 14.071 17.9043 13.7593 18.1552 13.401C18.8334 12.4324 18.8334 11.0661 18.8334 8.33341C18.8334 5.60072 18.8334 4.23438 18.1552 3.26584C17.9043 2.90751 17.5927 2.59583 17.2343 2.34493C16.2657 1.66675 14.8994 1.66675 12.1667 1.66675Z" stroke="#1A1A1A" stroke-width="1.5" stroke-linecap="round"/>
<path d="M9.66675 12.5H11.3334" stroke="#1A1A1A" stroke-width="1.5" stroke-linecap="round" stroke-linejoin="round"/>
<path d="M12.5834 18.3333L12.3205 17.9843C11.7278 17.1974 11.5808 15.9953 11.9557 15M8.41675 18.3333L8.67966 17.9843C9.27233 17.1974 9.41933 15.9953 9.04441 15" stroke="#1A1A1A" stroke-width="1.5" stroke-linecap="round"/>
<path d="M6.33325 18.3333H14.6666" stroke="#1A1A1A" stroke-width="1.5" stroke-linecap="round"/>
</svg>
