<svg width="16" height="16" viewBox="0 0 16 16" fill="none" xmlns="http://www.w3.org/2000/svg">
<path d="M5.18842 11.4075C4.45483 11.8287 2.53142 12.6888 3.7029 13.765C4.27517 14.2907 4.91252 14.6667 5.71383 14.6667H10.2862C11.0876 14.6667 11.7249 14.2907 12.2972 13.765C13.4686 12.6888 11.5452 11.8287 10.8116 11.4075C9.09144 10.4198 6.90864 10.4198 5.18842 11.4075Z" stroke="#1A1A1A" stroke-linecap="round" stroke-linejoin="round"/>
<path d="M10.3333 6.66665C10.3333 7.95531 9.28863 8.99998 7.99996 8.99998C6.71129 8.99998 5.66663 7.95531 5.66663 6.66665C5.66663 5.37798 6.71129 4.33331 7.99996 4.33331C9.28863 4.33331 10.3333 5.37798 10.3333 6.66665Z" stroke="#1A1A1A"/>
<path d="M1.90271 10.6666C1.53671 9.84425 1.33337 8.93398 1.33337 7.97638C1.33337 4.30751 4.31814 1.33331 8.00004 1.33331C11.6819 1.33331 14.6667 4.30751 14.6667 7.97638C14.6667 8.93398 14.4634 9.84425 14.0974 10.6666" stroke="#1A1A1A" stroke-linecap="round"/>
</svg>
