<svg width="16" height="16" viewBox="0 0 16 16" fill="none" xmlns="http://www.w3.org/2000/svg">
<path d="M2.59393 13.9151L2 14L2.08485 13.4061C2.21391 12.5027 2.27843 12.0509 2.47888 11.6501C2.67933 11.2492 3.00197 10.9265 3.64727 10.2812L11.3218 2.60673C11.6041 2.32436 11.7453 2.18317 11.8976 2.1077C12.1874 1.9641 12.5276 1.9641 12.8174 2.1077C12.9697 2.18317 13.1109 2.32436 13.3933 2.60673C13.6757 2.8891 13.8168 3.03029 13.8923 3.18259C14.0359 3.47237 14.0359 3.81259 13.8923 4.10237C13.8168 4.25467 13.6757 4.39586 13.3933 4.67823L5.71877 12.3527C5.07348 12.998 4.75083 13.3207 4.34994 13.5211C3.94905 13.7215 3.49733 13.7861 2.59393 13.9151Z" stroke="#1A1A1A" stroke-linecap="round" stroke-linejoin="round"/>
<path d="M4 9.99998L6 12M5.66667 8.33331L7.66667 10.3333" stroke="#1A1A1A" stroke-linecap="round" stroke-linejoin="round"/>
</svg>
