<svg width="20" height="20" viewBox="0 0 20 20" fill="none" xmlns="http://www.w3.org/2000/svg">
<path d="M4.16675 7.50008C4.16675 4.75022 4.16675 3.37529 5.02102 2.52102C5.87529 1.66675 7.25022 1.66675 10.0001 1.66675C12.7499 1.66675 14.1248 1.66675 14.9792 2.52102C15.8334 3.37529 15.8334 4.75022 15.8334 7.50008V12.5001C15.8334 15.2499 15.8334 16.6248 14.9792 17.4792C14.1248 18.3334 12.7499 18.3334 10.0001 18.3334C7.25022 18.3334 5.87529 18.3334 5.02102 17.4792C4.16675 16.6248 4.16675 15.2499 4.16675 12.5001V7.50008Z" stroke="#1A1A1A" stroke-width="1.25" stroke-linecap="round"/>
<path d="M9.16675 15.8333H10.8334" stroke="#1A1A1A" stroke-width="1.25" stroke-linecap="round" stroke-linejoin="round"/>
<path d="M7.5 1.66675L7.57417 2.11176C7.7349 3.07616 7.81527 3.55836 8.14599 3.85178C8.491 4.15786 8.98008 4.16675 10 4.16675C11.0199 4.16675 11.509 4.15786 11.854 3.85178C12.1847 3.55836 12.2651 3.07616 12.4258 2.11176L12.5 1.66675" stroke="#1A1A1A" stroke-width="1.25" stroke-linejoin="round"/>
</svg>
