<svg width="24" height="24" viewBox="0 0 24 24" fill="none" xmlns="http://www.w3.org/2000/svg">
<path d="M5 9C5 5.70017 5 4.05025 6.02513 3.02513C7.05025 2 8.70017 2 12 2C15.2998 2 16.9497 2 17.9749 3.02513C19 4.05025 19 5.70017 19 9V15C19 18.2998 19 19.9497 17.9749 20.9749C16.9497 22 15.2998 22 12 22C8.70017 22 7.05025 22 6.02513 20.9749C5 19.9497 5 18.2998 5 15V9Z" fill="#F8F8F8" stroke="#F8F8F8" stroke-linecap="round"/>
<path d="M11 19H13" stroke="#1A1A1A" stroke-linecap="round" stroke-linejoin="round"/>
<path d="M9 2.5C9.03476 2.70855 9.089 3.03402 9.089 3.03402C9.28188 4.19129 9.37832 4.76993 9.77519 5.12204C10.1892 5.48934 10.7761 5.5 12 5.5C13.2239 5.5 13.8108 5.48934 14.2248 5.12204C14.6217 4.76993 14.7181 4.19129 14.911 3.03402L15 2.5" stroke="#1A1A1A" stroke-linejoin="round"/>
</svg>
