<svg width="16" height="16" viewBox="0 0 16 16" fill="none" xmlns="http://www.w3.org/2000/svg">
<path d="M7.99992 14.6667L6.66658 10.6667H1.33325L2.66659 14.6667H7.99992ZM7.99992 14.6667H10.6666" stroke="#1A1A1A" stroke-linecap="round" stroke-linejoin="round"/>
<path d="M8.00008 8.66669V8.33335C8.00008 7.07629 8.00008 6.44773 7.60955 6.05721C7.21901 5.66669 6.59049 5.66669 5.33341 5.66669C4.07633 5.66669 3.44779 5.66669 3.05727 6.05721C2.66675 6.44773 2.66675 7.07629 2.66675 8.33335V8.66669" stroke="#1A1A1A" stroke-linecap="round" stroke-linejoin="round"/>
<path d="M12.6667 8.66665C12.6667 9.40305 12.0697 9.99998 11.3333 9.99998C10.5969 9.99998 10 9.40305 10 8.66665C10 7.93025 10.5969 7.33331 11.3333 7.33331C12.0697 7.33331 12.6667 7.93025 12.6667 8.66665Z" stroke="#1A1A1A"/>
<path d="M6.66667 2.66665C6.66667 3.40303 6.06971 3.99998 5.33333 3.99998C4.59695 3.99998 4 3.40303 4 2.66665C4 1.93027 4.59695 1.33331 5.33333 1.33331C6.06971 1.33331 6.66667 1.93027 6.66667 2.66665Z" stroke="#1A1A1A"/>
<path d="M9.33325 11.6667H13.3333C14.0697 11.6667 14.6666 12.2636 14.6666 13V13.3334C14.6666 14.0698 14.0697 14.6667 13.3333 14.6667H12.6666" stroke="#1A1A1A" stroke-linecap="round"/>
</svg>
