<svg width="16" height="16" viewBox="0 0 16 16" fill="none" xmlns="http://www.w3.org/2000/svg">
<path d="M1.66675 9.16667C1.66675 6.73107 1.66675 5.51328 2.40874 4.75664C3.15074 4 4.34497 4 6.73341 4H9.26675C11.6552 4 12.8494 4 13.5914 4.75664C14.3334 5.51328 14.3334 6.73107 14.3334 9.16667C14.3334 11.6023 14.3334 12.8201 13.5914 13.5767C12.8494 14.3333 11.6552 14.3333 9.26675 14.3333H6.73341C4.34497 14.3333 3.15074 14.3333 2.40874 13.5767C1.66675 12.8201 1.66675 11.6023 1.66675 9.16667Z" stroke="#1A1A1A" stroke-linecap="round"/>
<path d="M11 4.00002L10.9338 3.79398C10.6037 2.76728 10.4387 2.25393 10.0459 1.96031C9.65307 1.66669 9.13133 1.66669 8.08773 1.66669H7.91227C6.86867 1.66669 6.34691 1.66669 5.95407 1.96031C5.56124 2.25393 5.39624 2.76728 5.06623 3.79398L5 4.00002" stroke="#1A1A1A"/>
</svg>
